<?xml version="1.0" encoding="UTF-8"?>
<svg width="21px" height="20px" viewBox="0 0 21 20" version="1.1" xmlns="http://www.w3.org/2000/svg" xmlns:xlink="http://www.w3.org/1999/xlink">
    <!-- Generator: Sketch 52.2 (67145) - http://www.bohemiancoding.com/sketch -->
    <title>icon_shichang_select</title>
    <desc>Created with Sketch.</desc>
    <g id="Page-1" stroke="none" stroke-width="1" fill="none" fill-rule="evenodd">
        <g id="11.交易市场-职位" transform="translate(-56.000000, -634.000000)" stroke="#2E2F40" stroke-width="1.6">
            <g id="icon_shichang_select" transform="translate(56.000000, 634.000000)">
                <path d="M4.4389,0.8001 L16.5019,0.8001" id="Stroke-1"></path>
                <path d="M17.8657,10.68 L17.8657,17.7353 C17.8657,18.2293 17.4617,18.6333 16.9677,18.6333 L3.7637,18.6333 C3.2707,18.6333 2.8657,18.2293 2.8657,17.7353 L2.8657,10.68" id="形状"></path>
                <path d="M11.9145,18.6336 L8.8595,18.6336 C8.4965,18.6336 8.1995,18.3356 8.1995,17.9736 L8.1995,14.1686 C8.1995,13.8056 8.4965,13.5086 8.8595,13.5086 L11.9145,13.5086 C12.2765,13.5086 12.5745,13.8056 12.5745,14.1686 L12.5745,17.9736 C12.5745,18.3356 12.2765,18.6336 11.9145,18.6336 Z" id="Stroke-5"></path>
                <path d="M18.9731,10.3993 L1.7451,10.3993 C1.0611,10.3993 0.6571,9.8613 0.8471,9.2043 L2.3741,3.9203 C2.4621,3.6163 2.8371,3.3733 3.2081,3.3733 L17.5241,3.3733 C17.8951,3.3733 18.2701,3.6163 18.3581,3.9203 L19.8811,9.1913 C20.0741,9.8553 19.6641,10.3993 18.9731,10.3993 Z" id="Stroke-13"></path>
                <path d="M6.7411,3.3729 L5.6161,10.3989" id="Stroke-7"></path>
                <path d="M14.0473,3.3729 L15.1723,10.3989" id="Stroke-9"></path>
                <path d="M10.3661,3.3729 L10.3661,10.3989" id="Stroke-11"></path>
            </g>
        </g>
    </g>
</svg>